<svg width="16" height="24" viewBox="0 0 16 24" fill="none" xmlns="http://www.w3.org/2000/svg">
<path fill-rule="evenodd" clip-rule="evenodd" d="M8.07107 23.1423L8.07108 23.1423L8.77819 22.4352L8.77817 22.4352L15.1421 16.0713L14.435 15.3642L8.07107 21.7281L1.70712 15.3642L1.00001 16.0713L7.36396 22.4352L7.36395 22.4352L8.07106 23.1423L8.07107 23.1423Z" fill="#18181A"/>
<path d="M8.07108 23.1423L7.71753 23.4959L8.07108 23.8495L8.42463 23.4959L8.07108 23.1423ZM8.07107 23.1423L8.42462 22.7888L8.07107 22.4352L7.71751 22.7888L8.07107 23.1423ZM8.77819 22.4352L9.13174 22.7888L9.48529 22.4352L9.13174 22.0817L8.77819 22.4352ZM8.77817 22.4352L8.42462 22.0817L8.07107 22.4352L8.42462 22.7888L8.77817 22.4352ZM15.1421 16.0713L15.4957 16.4248L15.8492 16.0713L15.4957 15.7177L15.1421 16.0713ZM14.435 15.3642L14.7886 15.0106L14.435 14.6571L14.0815 15.0106L14.435 15.3642ZM8.07107 21.7281L7.71751 22.0817L8.07107 22.4352L8.42462 22.0817L8.07107 21.7281ZM1.70712 15.3642L2.06067 15.0106L1.70712 14.6571L1.35356 15.0106L1.70712 15.3642ZM1.00001 16.0713L0.646458 15.7177L0.292905 16.0713L0.646458 16.4248L1.00001 16.0713ZM7.36396 22.4352L7.71751 22.7888L8.07107 22.4352L7.71751 22.0817L7.36396 22.4352ZM7.36395 22.4352L7.0104 22.0817L6.65684 22.4352L7.0104 22.7888L7.36395 22.4352ZM8.07106 23.1423L7.7175 23.4959L8.07106 23.8495L8.42461 23.4959L8.07106 23.1423ZM8.42463 22.7888L8.42462 22.7888L7.71751 23.4959L7.71753 23.4959L8.42463 22.7888ZM8.42463 22.0817L7.71753 22.7888L8.42463 23.4959L9.13174 22.7888L8.42463 22.0817ZM8.42462 22.7888L8.42463 22.7888L9.13174 22.0817L9.13173 22.0817L8.42462 22.7888ZM14.7886 15.7177L8.42462 22.0817L9.13173 22.7888L15.4957 16.4248L14.7886 15.7177ZM14.0815 15.7177L14.7886 16.4248L15.4957 15.7177L14.7886 15.0106L14.0815 15.7177ZM8.42462 22.0817L14.7886 15.7177L14.0815 15.0106L7.71751 21.3746L8.42462 22.0817ZM1.35356 15.7177L7.71751 22.0817L8.42462 21.3746L2.06067 15.0106L1.35356 15.7177ZM1.35356 16.4248L2.06067 15.7177L1.35356 15.0106L0.646458 15.7177L1.35356 16.4248ZM7.71751 22.0817L1.35356 15.7177L0.646458 16.4248L7.01041 22.7888L7.71751 22.0817ZM7.7175 22.7888L7.71751 22.7888L7.01041 22.0817L7.0104 22.0817L7.7175 22.7888ZM8.42461 22.7888L7.7175 22.0817L7.0104 22.7888L7.7175 23.4959L8.42461 22.7888ZM7.71751 22.7888L7.7175 22.7888L8.42461 23.4959L8.42462 23.4959L7.71751 22.7888Z" fill="#18181A"/>
<path fill-rule="evenodd" clip-rule="evenodd" d="M8.07152 1.00024L8.0715 1.00023L7.3644 1.70734L7.36441 1.70735L1.00046 8.0713L1.70756 8.77841L8.07152 2.41446L14.4355 8.7784L15.1426 8.0713L8.77862 1.70735L8.77863 1.70734L8.07153 1.00024L8.07152 1.00024Z" fill="#18181A"/>
<path d="M8.0715 1.00023L8.42506 0.646676L8.0715 0.293122L7.71795 0.646676L8.0715 1.00023ZM8.07152 1.00024L7.71796 1.3538L8.07152 1.70735L8.42507 1.3538L8.07152 1.00024ZM7.3644 1.70734L7.01084 1.35378L6.65729 1.70734L7.01084 2.06089L7.3644 1.70734ZM7.36441 1.70735L7.71796 2.0609L8.07152 1.70735L7.71796 1.3538L7.36441 1.70735ZM1.00046 8.0713L0.646904 7.71775L0.293351 8.0713L0.646904 8.42486L1.00046 8.0713ZM1.70756 8.77841L1.35401 9.13196L1.70756 9.48552L2.06112 9.13196L1.70756 8.77841ZM8.07152 2.41446L8.42507 2.0609L8.07152 1.70735L7.71796 2.0609L8.07152 2.41446ZM14.4355 8.7784L14.0819 9.13196L14.4355 9.48551L14.789 9.13196L14.4355 8.7784ZM15.1426 8.0713L15.4961 8.42485L15.8497 8.0713L15.4961 7.71774L15.1426 8.0713ZM8.77862 1.70735L8.42507 1.3538L8.07152 1.70735L8.42507 2.0609L8.77862 1.70735ZM8.77863 1.70734L9.13219 2.0609L9.48574 1.70734L9.13219 1.35379L8.77863 1.70734ZM8.07153 1.00024L8.42508 0.646683L8.07153 0.293129L7.71797 0.646683L8.07153 1.00024ZM7.71795 1.35378L7.71796 1.3538L8.42507 0.64669L8.42506 0.646676L7.71795 1.35378ZM7.71795 2.06089L8.42506 1.35378L7.71795 0.646676L7.01084 1.35378L7.71795 2.06089ZM7.71796 1.3538L7.71795 1.35378L7.01084 2.06089L7.01086 2.0609L7.71796 1.3538ZM1.35401 8.42486L7.71796 2.0609L7.01086 1.3538L0.646904 7.71775L1.35401 8.42486ZM2.06112 8.42486L1.35401 7.71775L0.646904 8.42486L1.35401 9.13196L2.06112 8.42486ZM7.71796 2.0609L1.35401 8.42486L2.06112 9.13196L8.42507 2.76801L7.71796 2.0609ZM14.789 8.42485L8.42507 2.0609L7.71796 2.76801L14.0819 9.13196L14.789 8.42485ZM14.789 7.71774L14.0819 8.42485L14.789 9.13196L15.4961 8.42485L14.789 7.71774ZM8.42507 2.0609L14.789 8.42485L15.4961 7.71774L9.13218 1.3538L8.42507 2.0609ZM8.42508 1.35379L8.42507 1.3538L9.13218 2.0609L9.13219 2.0609L8.42508 1.35379ZM7.71797 1.35379L8.42508 2.0609L9.13219 1.35379L8.42508 0.646683L7.71797 1.35379ZM8.42507 1.3538L8.42508 1.35379L7.71797 0.646683L7.71796 0.64669L8.42507 1.3538Z" fill="#18181A"/>
</svg>
