<svg width="18" height="18" viewBox="0 0 18 18" fill="none" xmlns="http://www.w3.org/2000/svg">
<path fill-rule="evenodd" clip-rule="evenodd" d="M1 11.6064L6.30325 16.9097L6.30335 16.9096L6.51558 17.1218L17.1221 6.51533L16.415 5.80822L6.51549 15.7077L1.70711 10.8993L1 11.6064Z" fill="#18181A"/>
<path d="M6.30325 16.9097L5.9497 17.2633L6.30325 17.6168L6.65681 17.2633L6.30325 16.9097ZM1 11.6064L0.646447 11.2529L0.292893 11.6064L0.646447 11.96L1 11.6064ZM6.30335 16.9096L6.6569 16.5561L6.30335 16.2025L5.94979 16.5561L6.30335 16.9096ZM6.51558 17.1218L6.16202 17.4754L6.51558 17.8289L6.86913 17.4754L6.51558 17.1218ZM17.1221 6.51533L17.4756 6.86888L17.8292 6.51533L17.4756 6.16178L17.1221 6.51533ZM16.415 5.80822L16.7685 5.45467L16.415 5.10112L16.0614 5.45467L16.415 5.80822ZM6.51549 15.7077L6.16193 16.0613L6.51549 16.4148L6.86904 16.0613L6.51549 15.7077ZM1.70711 10.8993L2.06066 10.5458L1.70711 10.1922L1.35355 10.5458L1.70711 10.8993ZM6.65681 16.5561L1.35355 11.2529L0.646447 11.96L5.9497 17.2633L6.65681 16.5561ZM5.94979 16.5561L5.9497 16.5561L6.65681 17.2633L6.6569 17.2632L5.94979 16.5561ZM6.86913 16.7683L6.6569 16.5561L5.94979 17.2632L6.16202 17.4754L6.86913 16.7683ZM16.7685 6.16178L6.16202 16.7683L6.86913 17.4754L17.4756 6.86888L16.7685 6.16178ZM16.0614 6.16178L16.7685 6.86888L17.4756 6.16178L16.7685 5.45467L16.0614 6.16178ZM6.86904 16.0613L16.7685 6.16178L16.0614 5.45467L6.16193 15.3542L6.86904 16.0613ZM1.35355 11.2529L6.16193 16.0613L6.86904 15.3542L2.06066 10.5458L1.35355 11.2529ZM1.35355 11.96L2.06066 11.2529L1.35355 10.5458L0.646447 11.2529L1.35355 11.96Z" fill="#18181A"/>
</svg>
