<svg width="31" height="31" viewBox="0 0 31 31" fill="none" xmlns="http://www.w3.org/2000/svg">
<path fill-rule="evenodd" clip-rule="evenodd" d="M19.6777 28.8701L28.163 20.3848L28.5166 20.0313L28.8701 19.6777L11.1924 2.00006L10.4853 2.70717L27.4559 19.6777L18.9706 28.163L19.6777 28.8701Z" fill="#3A5844"/>
<path d="M19.6777 28.8701L18.9706 29.5772L19.6777 30.2843L20.3848 29.5772L19.6777 28.8701ZM28.8701 19.6777L29.5772 20.3848L30.2843 19.6777L29.5772 18.9706L28.8701 19.6777ZM11.1924 2.00006L11.8996 1.29296L11.1924 0.585851L10.4853 1.29296L11.1924 2.00006ZM10.4853 2.70717L9.77823 2.00006L9.07113 2.70717L9.77823 3.41428L10.4853 2.70717ZM27.4559 19.6777L28.163 20.3848L28.8701 19.6777L28.163 18.9706L27.4559 19.6777ZM18.9706 28.163L18.2635 27.4559L17.5564 28.163L18.2635 28.8701L18.9706 28.163ZM27.4559 19.6777L18.9706 28.163L20.3848 29.5772L28.8701 21.0919L27.4559 19.6777ZM27.8095 19.3242L27.4559 19.6777L28.8701 21.0919L29.2237 20.7384L27.8095 19.3242ZM28.163 18.9706L27.8095 19.3242L29.2237 20.7384L29.5772 20.3848L28.163 18.9706ZM10.4853 2.70717L28.163 20.3848L29.5772 18.9706L11.8996 1.29296L10.4853 2.70717ZM11.1924 3.41428L11.8996 2.70717L10.4853 1.29296L9.77823 2.00006L11.1924 3.41428ZM28.163 18.9706L11.1924 2.00006L9.77823 3.41428L26.7488 20.3848L28.163 18.9706ZM19.6777 28.8701L28.163 20.3848L26.7488 18.9706L18.2635 27.4559L19.6777 28.8701ZM20.3848 28.163L19.6777 27.4559L18.2635 28.8701L18.9706 29.5772L20.3848 28.163Z" fill="#3A5844"/>
</svg>
