<svg width="66" height="66" viewBox="0 0 66 66" fill="none" xmlns="http://www.w3.org/2000/svg">
<path fill-rule="evenodd" clip-rule="evenodd" d="M6 41.3555L23.6777 59.0331L24.3848 59.7402L59.7401 24.3849L59.033 23.6778L24.3848 58.326L6.70711 40.6484L6 41.3555Z" fill="#B7B8B9"/>
<path d="M6 41.3555L3.17157 38.527L0.343146 41.3555L3.17157 44.1839L6 41.3555ZM24.3848 59.7402L21.5563 62.5687L24.3848 65.3971L27.2132 62.5687L24.3848 59.7402ZM59.7401 24.3849L62.5685 27.2133L65.397 24.3849L62.5685 21.5565L59.7401 24.3849ZM59.033 23.6778L61.8614 20.8494L59.033 18.0209L56.2046 20.8494L59.033 23.6778ZM24.3848 58.326L21.5563 61.1545L24.3848 63.9829L27.2132 61.1545L24.3848 58.326ZM6.70711 40.6484L9.53553 37.8199L6.70711 34.9915L3.87868 37.8199L6.70711 40.6484ZM26.5061 56.2047L8.82843 38.527L3.17157 44.1839L20.8492 61.8616L26.5061 56.2047ZM27.2132 56.9118L26.5061 56.2047L20.8492 61.8616L21.5563 62.5687L27.2132 56.9118ZM56.9117 21.5565L21.5563 56.9118L27.2132 62.5687L62.5685 27.2133L56.9117 21.5565ZM56.2046 26.5062L56.9117 27.2133L62.5685 21.5565L61.8614 20.8494L56.2046 26.5062ZM27.2132 61.1545L61.8614 26.5062L56.2046 20.8494L21.5563 55.4976L27.2132 61.1545ZM3.87868 43.4768L21.5563 61.1545L27.2132 55.4976L9.53553 37.8199L3.87868 43.4768ZM8.82843 44.1839L9.53553 43.4768L3.87868 37.8199L3.17157 38.527L8.82843 44.1839Z" fill="#B7B8B9"/>
</svg>
