<svg width="317" height="900" viewBox="0 0 317 900" fill="none" xmlns="http://www.w3.org/2000/svg">
<path d="M814.137 647.817L711.494 900H611.821V601.901L539.026 529.076L470.597 597.505L467.657 599.941L463.261 604.841V900H366.498L263.885 647.817L389.961 522.245L392.397 518.8L539.026 372.706L685.12 518.8L688.061 522.245L814.137 647.817ZM166.884 0L95.4856 71.6068L92.1592 74.7253L48.5595 118.741L3.1185 7.66261L0 0H166.884ZM467.33 0.0297L463.172 4.1877L400.594 66.439L395.812 71.5474L392.605 74.7253L245.471 221.889L242.59 224.77L170.448 296.911L167.271 300.089L135.343 332.017L90.0208 221.236L92.2483 219.008L164.39 146.867L167.271 143.689L310.9 0.0297H467.33ZM900.802 434.482L855.45 545.56L760.35 450.104L757.143 447.253L685.001 375.111L682.121 371.904L611.91 302.02L610.009 300.089L607.128 296.882L539.768 229.552L538.818 228.898L222.156 545.56L176.834 434.482L239.412 371.904L242.59 369.053L314.404 296.882L317.612 294.03L392.605 219.008L463.172 148.144L467.627 143.689L538.818 72.4978L900.802 434.482ZM987.615 221.236L942.59 332.017L610.306 0.0297H766.736L833.115 66.439L838.224 71.5474L910.365 143.689L913.246 146.867L987.615 221.236ZM1077.7 0L1074.37 7.45471L1029.34 118.741L985.328 74.7253L982.447 71.6068L911.019 0H1077.7Z" fill="white"/>
</svg>
