<svg width="49" height="43" viewBox="0 0 49 43" fill="none" xmlns="http://www.w3.org/2000/svg">
<path fill-rule="evenodd" clip-rule="evenodd" d="M45.3737 38.18H41.7457C41.0372 36.0277 39.9889 33.6362 38.402 31.2178C32.1523 21.695 21.9851 18.4699 18.0559 17.4524C19.8329 15.5495 21.5897 14.3445 22.8349 13.6382C26.823 11.3772 32.0244 10.276 38.7302 10.276H45.3737V38.18ZM7.48992 39.7783H3.64652C3.86191 31.8136 5.52279 24.8916 8.59044 19.1728C11.9021 13.014 16.321 9.60985 19.4408 7.8442C25.7528 4.26268 33.0559 3.68863 39.6321 3.61499V6.70447H38.7302C31.3732 6.70447 25.5862 7.96302 21.0276 10.5437C16.6542 13.0274 6.8286 20.7527 7.48992 39.7783ZM45.3737 0V6.70447H43.2635V0.0368194H41.4478C35.0904 0.0368194 27.9034 0.299576 21.1909 3.02923L17.9196 4.59238L17.9146 4.59573C14.364 6.55552 9.20127 10.4098 5.39153 17.5043C3.60108 20.828 2.26498 24.5033 1.35966 28.5099L0.609158 32.6789C0.205298 35.4989 0 38.4645 0 41.5624V43H15.6731V39.7783H11.1162C10.7696 30.4513 13.1255 24.1836 15.9659 20.0582C18.8552 20.6741 22.9342 21.936 27.1259 24.6958C29.295 26.125 32.891 28.5484 35.6861 33.1224C37.426 35.9692 38.2371 38.6336 38.641 40.4494L39.0162 41.7498H49V0H45.3737Z" fill="#18181A"/>
</svg>
