<svg width="572" height="149" viewBox="0 0 572 149" fill="none" xmlns="http://www.w3.org/2000/svg">
<path fill-rule="evenodd" clip-rule="evenodd" d="M515 10.295V0H431.349L431.24 39.9788H504.708V59.6181H431.354V69.908L515 69.7904V29.6838H441.651V10.295H515ZM377.092 59.6181H313.917V0H303.619V69.9131H387.265V0H377.092V59.6181ZM190.604 10.295H253.785V29.6838H190.604V10.295ZM180.312 69.8262L190.604 70V39.9737L240.444 40.1066L252.917 69.7853H262.904L251.051 40.1015H263.953V0H180.312V69.8262ZM57 10.295H130.349V29.6838H57V69.7853H67.2924V39.9788H130.349V69.7853H140.641V0H57V10.295Z" fill="#18181A"/>
<path d="M71.4839 130.877H61.6548L59.4473 137H56.2568L65.2158 113.539H67.9229L76.8979 137H73.7236L71.4839 130.877ZM62.5894 128.331H70.5654L66.5693 117.358L62.5894 128.331ZM90.1592 135.276C88.999 136.64 87.2964 137.322 85.0513 137.322C83.1929 137.322 81.7749 136.785 80.7974 135.711C79.8306 134.626 79.3418 133.025 79.3311 130.909V119.565H82.312V130.829C82.312 133.471 83.3862 134.792 85.5347 134.792C87.812 134.792 89.3267 133.944 90.0786 132.247V119.565H93.0596V137H90.2236L90.1592 135.276ZM101.648 115.344V119.565H104.903V121.87H101.648V132.682C101.648 133.38 101.793 133.906 102.083 134.261C102.373 134.604 102.867 134.776 103.565 134.776C103.909 134.776 104.382 134.712 104.983 134.583V137C104.199 137.215 103.437 137.322 102.695 137.322C101.363 137.322 100.359 136.919 99.6821 136.114C99.0054 135.308 98.667 134.164 98.667 132.682V121.87H95.4927V119.565H98.667V115.344H101.648ZM111.38 121.676C112.702 120.054 114.42 119.243 116.537 119.243C120.221 119.243 122.08 121.322 122.112 125.479V137H119.131V125.463C119.12 124.206 118.83 123.277 118.261 122.675C117.702 122.074 116.827 121.773 115.634 121.773C114.667 121.773 113.819 122.031 113.088 122.546C112.358 123.062 111.789 123.739 111.38 124.577V137H108.399V112.25H111.38V121.676ZM125.786 128.122C125.786 126.414 126.119 124.877 126.785 123.513C127.461 122.149 128.396 121.096 129.588 120.355C130.792 119.614 132.161 119.243 133.697 119.243C136.071 119.243 137.989 120.065 139.45 121.708C140.921 123.352 141.657 125.538 141.657 128.267V128.476C141.657 130.173 141.33 131.699 140.674 133.052C140.03 134.395 139.101 135.442 137.887 136.194C136.684 136.946 135.298 137.322 133.729 137.322C131.366 137.322 129.449 136.5 127.977 134.857C126.516 133.213 125.786 131.038 125.786 128.331V128.122ZM128.783 128.476C128.783 130.41 129.229 131.962 130.12 133.133C131.022 134.304 132.226 134.889 133.729 134.889C135.244 134.889 136.447 134.298 137.339 133.117C138.23 131.924 138.676 130.259 138.676 128.122C138.676 126.209 138.22 124.663 137.307 123.481C136.404 122.289 135.201 121.692 133.697 121.692C132.226 121.692 131.039 122.278 130.136 123.449C129.234 124.62 128.783 126.295 128.783 128.476ZM153.823 122.24C153.372 122.165 152.883 122.127 152.356 122.127C150.401 122.127 149.075 122.96 148.376 124.625V137H145.396V119.565H148.296L148.344 121.58C149.322 120.022 150.708 119.243 152.501 119.243C153.082 119.243 153.522 119.318 153.823 119.469V122.24ZM159.817 137H156.836V119.565H159.817V137ZM156.594 114.941C156.594 114.458 156.739 114.049 157.029 113.716C157.33 113.383 157.771 113.217 158.351 113.217C158.931 113.217 159.371 113.383 159.672 113.716C159.973 114.049 160.123 114.458 160.123 114.941C160.123 115.424 159.973 115.827 159.672 116.149C159.371 116.472 158.931 116.633 158.351 116.633C157.771 116.633 157.33 116.472 157.029 116.149C156.739 115.827 156.594 115.424 156.594 114.941ZM167.406 134.567H177.606V137H163.765V134.809L173.384 122.031H163.91V119.565H177.123V121.676L167.406 134.567ZM187.951 137.322C185.587 137.322 183.665 136.549 182.182 135.002C180.7 133.444 179.958 131.366 179.958 128.766V128.218C179.958 126.489 180.286 124.947 180.941 123.594C181.607 122.229 182.531 121.166 183.713 120.403C184.905 119.63 186.194 119.243 187.58 119.243C189.847 119.243 191.608 119.99 192.865 121.483C194.122 122.976 194.75 125.114 194.75 127.896V129.137H182.939C182.982 130.855 183.482 132.247 184.438 133.31C185.405 134.363 186.629 134.889 188.112 134.889C189.165 134.889 190.056 134.674 190.787 134.245C191.517 133.815 192.156 133.246 192.704 132.537L194.525 133.955C193.064 136.2 190.873 137.322 187.951 137.322ZM187.58 121.692C186.377 121.692 185.367 122.133 184.551 123.014C183.734 123.884 183.229 125.108 183.036 126.688H191.77V126.462C191.684 124.947 191.275 123.776 190.545 122.949C189.814 122.111 188.826 121.692 187.58 121.692ZM197.49 128.138C197.49 125.463 198.124 123.314 199.391 121.692C200.659 120.06 202.318 119.243 204.37 119.243C206.411 119.243 208.028 119.941 209.22 121.338V112.25H212.201V137H209.462L209.317 135.131C208.125 136.592 206.465 137.322 204.338 137.322C202.318 137.322 200.669 136.495 199.391 134.841C198.124 133.187 197.49 131.027 197.49 128.363V128.138ZM200.471 128.476C200.471 130.453 200.879 132 201.695 133.117C202.512 134.234 203.64 134.792 205.079 134.792C206.97 134.792 208.35 133.944 209.22 132.247V124.238C208.329 122.595 206.959 121.773 205.111 121.773C203.65 121.773 202.512 122.337 201.695 123.465C200.879 124.593 200.471 126.263 200.471 128.476ZM234.099 127.509H228.588V137H225.479V113.539H233.245C235.888 113.539 237.918 114.141 239.336 115.344C240.765 116.547 241.479 118.298 241.479 120.597C241.479 122.058 241.082 123.331 240.287 124.416C239.502 125.5 238.407 126.312 237 126.849L242.51 136.807V137H239.191L234.099 127.509ZM228.588 124.979H233.342C234.878 124.979 236.097 124.582 237 123.787C237.913 122.992 238.369 121.929 238.369 120.597C238.369 119.146 237.934 118.035 237.064 117.261C236.205 116.488 234.958 116.096 233.326 116.085H228.588V124.979ZM252.597 137.322C250.234 137.322 248.311 136.549 246.829 135.002C245.346 133.444 244.605 131.366 244.605 128.766V128.218C244.605 126.489 244.933 124.947 245.588 123.594C246.254 122.229 247.178 121.166 248.359 120.403C249.552 119.63 250.841 119.243 252.227 119.243C254.493 119.243 256.255 119.99 257.512 121.483C258.769 122.976 259.397 125.114 259.397 127.896V129.137H247.586C247.629 130.855 248.128 132.247 249.084 133.31C250.051 134.363 251.276 134.889 252.758 134.889C253.811 134.889 254.703 134.674 255.433 134.245C256.164 133.815 256.803 133.246 257.351 132.537L259.171 133.955C257.71 136.2 255.519 137.322 252.597 137.322ZM252.227 121.692C251.023 121.692 250.014 122.133 249.197 123.014C248.381 123.884 247.876 125.108 247.683 126.688H256.416V126.462C256.33 124.947 255.922 123.776 255.191 122.949C254.461 122.111 253.473 121.692 252.227 121.692ZM273.625 137C273.453 136.656 273.313 136.044 273.206 135.163C271.82 136.603 270.166 137.322 268.243 137.322C266.524 137.322 265.112 136.839 264.005 135.872C262.91 134.895 262.362 133.659 262.362 132.166C262.362 130.351 263.049 128.943 264.424 127.944C265.81 126.935 267.754 126.43 270.257 126.43H273.158V125.06C273.158 124.018 272.846 123.191 272.223 122.579C271.6 121.956 270.682 121.644 269.468 121.644C268.404 121.644 267.513 121.913 266.793 122.45C266.073 122.987 265.713 123.637 265.713 124.399H262.716C262.716 123.529 263.022 122.691 263.635 121.886C264.258 121.069 265.096 120.425 266.148 119.952C267.212 119.479 268.377 119.243 269.645 119.243C271.654 119.243 273.228 119.748 274.366 120.758C275.505 121.757 276.096 123.137 276.139 124.899V132.923C276.139 134.524 276.343 135.797 276.751 136.742V137H273.625ZM268.678 134.728C269.613 134.728 270.499 134.486 271.337 134.003C272.175 133.52 272.782 132.891 273.158 132.118V128.541H270.821C267.169 128.541 265.343 129.609 265.343 131.747C265.343 132.682 265.654 133.412 266.277 133.938C266.9 134.465 267.701 134.728 268.678 134.728ZM284.05 137H281.069V112.25H284.05V137ZM292.88 115.344V119.565H296.135V121.87H292.88V132.682C292.88 133.38 293.025 133.906 293.315 134.261C293.605 134.604 294.1 134.776 294.798 134.776C295.142 134.776 295.614 134.712 296.216 134.583V137C295.432 137.215 294.669 137.322 293.928 137.322C292.596 137.322 291.591 136.919 290.915 136.114C290.238 135.308 289.899 134.164 289.899 132.682V121.87H286.725V119.565H289.899V115.344H292.88ZM302.871 137H299.89V119.565H302.871V137ZM299.648 114.941C299.648 114.458 299.793 114.049 300.083 113.716C300.384 113.383 300.824 113.217 301.404 113.217C301.984 113.217 302.425 113.383 302.726 113.716C303.026 114.049 303.177 114.458 303.177 114.941C303.177 115.424 303.026 115.827 302.726 116.149C302.425 116.472 301.984 116.633 301.404 116.633C300.824 116.633 300.384 116.472 300.083 116.149C299.793 115.827 299.648 115.424 299.648 114.941ZM310.46 119.565L310.541 121.499C311.819 119.995 313.543 119.243 315.713 119.243C318.151 119.243 319.811 120.178 320.692 122.047C321.272 121.209 322.024 120.532 322.948 120.017C323.882 119.501 324.983 119.243 326.251 119.243C330.075 119.243 332.02 121.268 332.084 125.318V137H329.103V125.495C329.103 124.249 328.818 123.32 328.249 122.708C327.68 122.084 326.724 121.773 325.381 121.773C324.274 121.773 323.356 122.106 322.625 122.772C321.895 123.427 321.471 124.313 321.353 125.431V137H318.355V125.576C318.355 123.041 317.115 121.773 314.633 121.773C312.678 121.773 311.341 122.605 310.621 124.271V137H307.64V119.565H310.46ZM343.831 137.322C341.467 137.322 339.544 136.549 338.062 135.002C336.58 133.444 335.838 131.366 335.838 128.766V128.218C335.838 126.489 336.166 124.947 336.821 123.594C337.487 122.229 338.411 121.166 339.593 120.403C340.785 119.63 342.074 119.243 343.46 119.243C345.727 119.243 347.488 119.99 348.745 121.483C350.002 122.976 350.63 125.114 350.63 127.896V129.137H338.819C338.862 130.855 339.362 132.247 340.318 133.31C341.285 134.363 342.509 134.889 343.992 134.889C345.044 134.889 345.936 134.674 346.667 134.245C347.397 133.815 348.036 133.246 348.584 132.537L350.405 133.955C348.944 136.2 346.752 137.322 343.831 137.322ZM343.46 121.692C342.257 121.692 341.247 122.133 340.431 123.014C339.614 123.884 339.109 125.108 338.916 126.688H347.649V126.462C347.563 124.947 347.155 123.776 346.425 122.949C345.694 122.111 344.706 121.692 343.46 121.692ZM379.264 113.539V129.491C379.253 131.704 378.555 133.514 377.169 134.921C375.794 136.329 373.925 137.118 371.562 137.29L370.74 137.322C368.172 137.322 366.126 136.629 364.601 135.244C363.075 133.858 362.302 131.951 362.28 129.523V113.539H365.342V129.427C365.342 131.124 365.809 132.445 366.744 133.391C367.678 134.325 369.01 134.792 370.74 134.792C372.491 134.792 373.828 134.325 374.752 133.391C375.687 132.456 376.154 131.14 376.154 129.443V113.539H379.264ZM393.83 132.375C393.83 131.57 393.524 130.947 392.912 130.506C392.31 130.055 391.252 129.668 389.737 129.346C388.233 129.024 387.036 128.637 386.144 128.186C385.263 127.735 384.608 127.198 384.178 126.575C383.759 125.952 383.55 125.21 383.55 124.351C383.55 122.922 384.151 121.714 385.354 120.726C386.568 119.737 388.115 119.243 389.995 119.243C391.972 119.243 393.572 119.753 394.797 120.774C396.032 121.794 396.65 123.1 396.65 124.689H393.653C393.653 123.873 393.304 123.169 392.605 122.579C391.918 121.988 391.048 121.692 389.995 121.692C388.91 121.692 388.062 121.929 387.449 122.401C386.837 122.874 386.531 123.492 386.531 124.254C386.531 124.974 386.815 125.517 387.385 125.882C387.954 126.247 388.98 126.596 390.462 126.929C391.956 127.262 393.164 127.66 394.088 128.122C395.012 128.583 395.694 129.142 396.134 129.797C396.585 130.442 396.811 131.231 396.811 132.166C396.811 133.724 396.188 134.975 394.942 135.92C393.696 136.855 392.079 137.322 390.092 137.322C388.695 137.322 387.46 137.075 386.386 136.581C385.312 136.087 384.468 135.399 383.856 134.519C383.254 133.627 382.954 132.666 382.954 131.634H385.935C385.988 132.633 386.386 133.428 387.127 134.019C387.879 134.599 388.867 134.889 390.092 134.889C391.22 134.889 392.122 134.664 392.799 134.212C393.486 133.75 393.83 133.138 393.83 132.375ZM407.929 137.322C405.566 137.322 403.643 136.549 402.161 135.002C400.678 133.444 399.937 131.366 399.937 128.766V128.218C399.937 126.489 400.265 124.947 400.92 123.594C401.586 122.229 402.51 121.166 403.691 120.403C404.884 119.63 406.173 119.243 407.559 119.243C409.825 119.243 411.587 119.99 412.844 121.483C414.101 122.976 414.729 125.114 414.729 127.896V129.137H402.918C402.961 130.855 403.46 132.247 404.417 133.31C405.383 134.363 406.608 134.889 408.09 134.889C409.143 134.889 410.035 134.674 410.765 134.245C411.496 133.815 412.135 133.246 412.683 132.537L414.503 133.955C413.042 136.2 410.851 137.322 407.929 137.322ZM407.559 121.692C406.355 121.692 405.346 122.133 404.529 123.014C403.713 123.884 403.208 125.108 403.015 126.688H411.748V126.462C411.662 124.947 411.254 123.776 410.523 122.949C409.793 122.111 408.805 121.692 407.559 121.692ZM426.621 122.24C426.169 122.165 425.681 122.127 425.154 122.127C423.199 122.127 421.873 122.96 421.174 124.625V137H418.193V119.565H421.094L421.142 121.58C422.12 120.022 423.505 119.243 425.299 119.243C425.879 119.243 426.32 119.318 426.621 119.469V122.24ZM444.941 126.542C442.288 125.78 440.354 124.845 439.141 123.739C437.938 122.622 437.336 121.247 437.336 119.614C437.336 117.766 438.072 116.241 439.543 115.038C441.026 113.824 442.949 113.217 445.312 113.217C446.923 113.217 448.357 113.528 449.614 114.151C450.882 114.774 451.859 115.634 452.547 116.729C453.245 117.825 453.594 119.023 453.594 120.323H450.484C450.484 118.905 450.033 117.793 449.131 116.987C448.229 116.171 446.956 115.763 445.312 115.763C443.787 115.763 442.594 116.101 441.735 116.778C440.886 117.444 440.462 118.373 440.462 119.565C440.462 120.521 440.865 121.333 441.67 121.999C442.487 122.654 443.867 123.255 445.812 123.803C447.767 124.351 449.292 124.958 450.388 125.624C451.494 126.279 452.311 127.047 452.837 127.928C453.374 128.809 453.643 129.846 453.643 131.038C453.643 132.939 452.901 134.465 451.419 135.614C449.937 136.753 447.955 137.322 445.473 137.322C443.862 137.322 442.358 137.016 440.961 136.404C439.565 135.781 438.485 134.932 437.723 133.858C436.971 132.784 436.595 131.564 436.595 130.2H439.705C439.705 131.618 440.226 132.741 441.268 133.568C442.32 134.384 443.722 134.792 445.473 134.792C447.106 134.792 448.357 134.459 449.228 133.793C450.098 133.127 450.533 132.22 450.533 131.07C450.533 129.921 450.13 129.035 449.324 128.412C448.519 127.778 447.058 127.155 444.941 126.542ZM472.592 132.891L475.943 119.565H478.924L473.849 137H471.432L467.194 123.787L463.069 137H460.652L455.592 119.565H458.557L461.989 132.617L466.05 119.565H468.451L472.592 132.891ZM492.733 137C492.562 136.656 492.422 136.044 492.314 135.163C490.929 136.603 489.274 137.322 487.352 137.322C485.633 137.322 484.22 136.839 483.114 135.872C482.018 134.895 481.47 133.659 481.47 132.166C481.47 130.351 482.158 128.943 483.533 127.944C484.918 126.935 486.863 126.43 489.366 126.43H492.266V125.06C492.266 124.018 491.955 123.191 491.332 122.579C490.708 121.956 489.79 121.644 488.576 121.644C487.513 121.644 486.621 121.913 485.901 122.45C485.182 122.987 484.822 123.637 484.822 124.399H481.825C481.825 123.529 482.131 122.691 482.743 121.886C483.366 121.069 484.204 120.425 485.257 119.952C486.32 119.479 487.486 119.243 488.753 119.243C490.762 119.243 492.336 119.748 493.475 120.758C494.613 121.757 495.204 123.137 495.247 124.899V132.923C495.247 134.524 495.451 135.797 495.859 136.742V137H492.733ZM487.787 134.728C488.721 134.728 489.607 134.486 490.445 134.003C491.283 133.52 491.89 132.891 492.266 132.118V128.541H489.93C486.277 128.541 484.451 129.609 484.451 131.747C484.451 132.682 484.763 133.412 485.386 133.938C486.009 134.465 486.809 134.728 487.787 134.728ZM514.647 128.476C514.647 131.129 514.041 133.267 512.827 134.889C511.613 136.511 509.969 137.322 507.896 137.322C505.78 137.322 504.115 136.651 502.901 135.308V143.703H499.92V119.565H502.643L502.788 121.499C504.002 119.995 505.688 119.243 507.848 119.243C509.942 119.243 511.597 120.033 512.811 121.612C514.035 123.191 514.647 125.388 514.647 128.202V128.476ZM511.667 128.138C511.667 126.172 511.248 124.62 510.41 123.481C509.572 122.342 508.422 121.773 506.961 121.773C505.157 121.773 503.803 122.573 502.901 124.174V132.504C503.792 134.094 505.157 134.889 506.994 134.889C508.422 134.889 509.556 134.325 510.394 133.197C511.242 132.059 511.667 130.372 511.667 128.138Z" fill="#18181A"/>
</svg>
